<?xml version="1.0" encoding="utf-8"?>
<!-- Generator: Adobe Illustrator 21.0.2, SVG Export Plug-In . SVG Version: 6.00 Build 0)  -->
<svg version="1.1" id="Calque_1" xmlns="http://www.w3.org/2000/svg" xmlns:xlink="http://www.w3.org/1999/xlink" x="0px" y="0px"
	 viewBox="0 0 72 72" style="enable-background:new 0 0 72 72;" xml:space="preserve">
<style type="text/css">
	.st0{fill:#FFFFFF;}
</style>
<title>Behance</title>
<g id="Calque_2">
	<g id="Calque_1-2">
		<g id="Calque_2-2">
			<g id="Capa_1">
				<path class="st0" d="M31.6,39.6v1.5c0,1.6-1.3,3-3,3h-6.7v-7.2h6.9C30.3,36.9,31.5,38.1,31.6,39.6z M30.5,31v-1.2
					c0-1.2-0.9-2.1-2.1-2.1c0,0,0,0,0,0h-6.5V33h6.5c1.1,0.1,2-0.8,2.1-1.9C30.5,31.1,30.5,31.1,30.5,31z M64,8v56H8V8H64z
					 M41.4,27.8h10V25h-10V27.8z M36.7,40c0-2.5-1.5-4.8-3.8-5.7c0,0,3.1-0.8,3.1-4.9c0-4.3-2.9-6.3-6.8-6.3H16.8v25.6h11.6
					c1.8,0,3.5-0.6,5.1-1.6C35.5,45.6,36.7,43.5,36.7,40z M47.3,29.4c-9,0-9.6,7.7-9.6,10.4c0,2.7,1.6,8.8,8.7,8.8
					c6.6,0,7.9-3.1,8.3-4.3c0.2-0.7,0.3-1.3,0.3-2h-4.2c0,0,0.3,2.3-4,2.3c-2.1,0.1-4-1.5-4.1-3.6c0-0.1,0-0.3,0-0.4h12.4
					C55.1,40.6,56.5,29.4,47.3,29.4z M47,33.1c-2.1-0.1-3.9,1.5-4,3.7h7.7C50.7,36.9,50.9,33.1,47,33.1z"/>
			</g>
		</g>
	</g>
</g>
</svg>
