<svg xmlns="http://www.w3.org/2000/svg" viewBox="0 0 72 72"><defs><style>.cls-1{fill:#fff;}</style></defs><title>Behance</title><g id="Calque_2" data-name="Calque 2"><g id="Calque_1-2" data-name="Calque 1"><g id="Calque_2-2" data-name="Calque 2"><g id="Capa_1" data-name="Capa 1"><path class="cls-1" d="M30.3,40.6v1.9a3.8,3.8,0,0,1-3.8,3.8H17.9V37.1h8.9A3.54,3.54,0,0,1,30.3,40.6Zm-1.4-11V28.1a2.69,2.69,0,0,0-2.7-2.7H17.9v6.8h8.3a2.55,2.55,0,0,0,2.7-2.6ZM72,0V72H0V0ZM43,25.4H55.8V21.9H43ZM36.9,41.2A7.74,7.74,0,0,0,32,33.9s4-1,4-6.3c0-5.5-3.7-8.1-8.8-8.1H11.3V52.4H26.2a12.38,12.38,0,0,0,6.5-2C35.4,48.4,36.9,45.7,36.9,41.2ZM50.5,27.5c-11.6,0-12.3,9.9-12.3,13.4s2,11.3,11.2,11.3c8.5,0,10.2-4,10.7-5.5a7.46,7.46,0,0,0,.4-2.6H55.1S55.5,47,50,47a5,5,0,0,1-5.3-5.2H60.6c0,.1,1.7-14.3-10.1-14.3Zm-.3,4.8A5,5,0,0,0,45,37h9.9C54.9,37.1,55.1,32.3,50.2,32.3Z"/></g></g></g></g></svg>