<?xml version="1.0" encoding="utf-8"?>
<!-- Generator: Adobe Illustrator 21.0.2, SVG Export Plug-In . SVG Version: 6.00 Build 0)  -->
<svg version="1.1" id="Calque_1" xmlns="http://www.w3.org/2000/svg" xmlns:xlink="http://www.w3.org/1999/xlink" x="0px" y="0px"
	 viewBox="0 0 72 72" style="enable-background:new 0 0 72 72;" xml:space="preserve">
<style type="text/css">
	.st0{fill:#FFFFFF;}
</style>
<title>Behance</title>
<g id="Calque_2">
	<g id="Calque_1-2">
		<g id="Calque_2-2">
			<g id="Capa_1">
				<path class="st0" d="M30.3,40.6v1.9c0,2.1-1.7,3.9-3.9,3.9h-8.6v-9.3h8.9C28.7,37.2,30.2,38.7,30.3,40.6z M28.9,29.6V28
					c0-1.5-1.2-2.7-2.7-2.7l0,0h-8.4v6.8h8.4c1.4,0.1,2.6-1,2.7-2.4C28.9,29.7,28.9,29.7,28.9,29.6z M72,0v72H0V0H72z M42.9,25.5
					h12.9v-3.6H42.9V25.5z M36.9,41.1c0-3.2-1.9-6.2-4.9-7.3c0,0,4-1,4-6.3c0-5.5-3.7-8.1-8.7-8.1H11.3v32.9h14.9
					c2.3,0,4.5-0.8,6.6-2.1C35.4,48.3,36.9,45.6,36.9,41.1z M50.5,27.5c-11.6,0-12.3,9.9-12.3,13.4s2.1,11.3,11.2,11.3
					c8.5,0,10.2-4,10.7-5.5c0.3-0.9,0.4-1.7,0.4-2.6H55c0,0,0.4,3-5.1,3c-2.7,0.1-5.1-1.9-5.3-4.6c0-0.1,0-0.4,0-0.5h15.9
					C60.6,41.9,62.4,27.5,50.5,27.5z M50.1,32.3c-2.7-0.1-5,1.9-5.1,4.8h9.9C54.9,37.2,55.2,32.3,50.1,32.3z"/>
			</g>
		</g>
	</g>
</g>
</svg>
