<?xml version="1.0" encoding="utf-8"?>
<!-- Generator: Adobe Illustrator 21.1.0, SVG Export Plug-In . SVG Version: 6.00 Build 0)  -->
<svg version="1.1" id="Calque_1" xmlns="http://www.w3.org/2000/svg" xmlns:xlink="http://www.w3.org/1999/xlink" x="0px" y="0px"
	 viewBox="0 0 72 72" style="enable-background:new 0 0 72 72;" xml:space="preserve">
<style type="text/css">
	.st0{fill:#E8BCCB;}
</style>
<title>Linkedin</title>
<g id="Calque_2">
	<g id="Calque_3">
		<g id="Calque_2-2">
			<g id="Capa_1">
				<path class="st0" d="M0,0v72h72V0H0z M24.2,57.2h-8.4V27.6h8.4V57.2z M20.1,24.3c-2.7,0.1-5-2.1-5.1-4.8
					c0.1-2.7,2.3-4.9,5.1-4.8c2.7-0.1,5,2.1,5.1,4.8l0,0c0,2.7-2.2,4.8-4.9,4.8C20.2,24.3,20.1,24.3,20.1,24.3z M57.1,57.2h-8.7
					V39.7c0-1.7-0.5-3.2-1.4-4.5c-0.9-0.8-2.1-1.3-3.2-1.2c-2.6,0-4.9,1.5-5.8,3.9v19.3h-8.4V27.6H38V30c2.6-2.1,5.7-3.3,9-3.3
					c8,0,10.2,6.3,10.2,9.6L57.1,57.2L57.1,57.2z"/>
			</g>
		</g>
	</g>
</g>
</svg>
