<?xml version="1.0" encoding="utf-8"?>
<!-- Generator: Adobe Illustrator 21.0.2, SVG Export Plug-In . SVG Version: 6.00 Build 0)  -->
<svg version="1.1" id="Calque_1" xmlns="http://www.w3.org/2000/svg" xmlns:xlink="http://www.w3.org/1999/xlink" x="0px" y="0px"
	 viewBox="0 0 72 72" style="enable-background:new 0 0 72 72;" xml:space="preserve">
<style type="text/css">
	.st0{fill:#FFFFFF;}
</style>
<title>Linkedin</title>
<g id="Calque_2">
	<g id="Calque_3">
		<g id="Calque_2-2">
			<g id="Capa_1">
				<path class="st0" d="M8,8v56h56V8H8z M26.8,52.5h-6.5V29.5h6.5V52.5z M23.6,26.9c-2.1,0.1-3.9-1.6-4-3.7c0.1-2.1,1.8-3.8,4-3.7
					c2.1-0.1,3.9,1.6,4,3.7c0,0,0,0,0,0c0,2.1-1.7,3.7-3.8,3.7C23.7,26.9,23.6,26.9,23.6,26.9z M52.4,52.5h-6.8V38.9
					c0-1.3-0.4-2.5-1.1-3.5c-0.7-0.6-1.6-1-2.5-0.9c-2,0-3.8,1.2-4.5,3v15H31V29.5h6.5v1.9c2-1.6,4.4-2.6,7-2.6
					c6.2,0,7.9,4.9,7.9,7.5V52.5z"/>
			</g>
		</g>
	</g>
</g>
</svg>
