<svg xmlns="http://www.w3.org/2000/svg" viewBox="0 0 72 72"><defs><style>.cls-1{fill:#fff;}</style></defs><title>Linkedin</title><g id="Calque_2" data-name="Calque 2"><g id="Calque_3" data-name="Calque 3"><g id="Calque_2-2" data-name="Calque 2"><g id="Capa_1" data-name="Capa 1"><path class="cls-1" d="M0,0V72H72V0ZM24.2,57.2H15.8V27.7h8.4ZM20,24.3a4.92,4.92,0,0,1-5.1-4.7A5,5,0,0,1,20,14.8a4.94,4.94,0,0,1,5.1,4.8A4.8,4.8,0,0,1,20,24.3ZM57.1,57.2H48.4V39.7A7.33,7.33,0,0,0,47,35.2,4.38,4.38,0,0,0,43.8,34,6.32,6.32,0,0,0,38,37.9V57.2H29.6V27.7H38v2.5a14.64,14.64,0,0,1,9-3.4c8,0,10.1,6.3,10.1,9.6V57.2Z"/></g></g></g></g></svg>